<svg xmlns="http://www.w3.org/2000/svg" xmlns:xlink="http://www.w3.org/1999/xlink" fill="none" version="1.1" width="25" height="25" viewBox="0 0 25 25"><defs><clipPath id="master_svg0_791_89139"><rect x="0" y="0" width="25" height="25" rx="0"/></clipPath></defs><g clip-path="url(#master_svg0_791_89139)"><g><path d="M15.079999976158142,7.2719994Q15.666204976158141,7.5700693,16.09816397615814,8.0285559Q15.899999976158142,7.422647,15.899999976158142,6.7851562Q15.899999976158142,6.6007037,15.916975976158142,6.4170341Q15.933950976158142,6.2333641,15.967757976158142,6.0520363Q16.001563976158142,5.8707085,16.051915976158142,5.6932611Q16.10226697615814,5.5158138,16.16873497615814,5.3437533Q16.235202976158142,5.1716928,16.317222976158142,5.0064793Q16.399242976158142,4.8412662,16.49611997615814,4.684302300000001Q16.59299697615814,4.5273385,16.703908976158143,4.3799565000000005Q16.814821976158143,4.2325745,16.938825976158142,4.0960255Q17.06282997615814,3.9594762,17.198875976158142,3.8349187Q17.33492097615814,3.710361,17.481851976158143,3.5988524Q17.628782976158142,3.4873438,17.785354976158143,3.3898306Q17.941923976158144,3.2923174,18.106803976158144,3.2096272Q18.27168497615814,3.1269369,18.443473976158142,3.0597713Q18.615262976158142,2.9926057,18.79250397615814,2.941535Q18.969747976158143,2.8904645,19.150937976158144,2.8559223Q19.332128976158142,2.8213801,19.515727976158143,2.8036596Q16.818054976158145,1,12.824000976158143,1Q9.432000476158143,1,6.840000076158142,2.4559994Q4.247999976158142,3.9119987,2.824000076158142,6.5200005Q1.399999976158142,9.1279993,1.399999976158142,12.456Q1.399999976158142,15.816,2.824000076158142,18.424Q4.247999976158142,21.032,6.8560002761581424,22.488001Q9.464000076158142,23.944,12.855999976158142,23.944Q15.640000976158142,23.944,17.815999976158142,22.936001Q19.992000976158142,21.927999,21.41600097615814,20.360001Q22.84000097615814,18.792,23.57600097615814,17L23.57600097615814,10.9200001L11.864000976158142,10.9200001L11.864000976158142,15.432L18.16800197615814,15.432Q16.760000976158143,18.408001,13.463999976158142,18.408001Q10.680000676158143,18.408001,9.224000376158141,16.887999999999998Q7.767999976158142,15.368,7.767999976158142,12.456Q7.767999976158142,9.8639994,9.128000576158142,8.3280001Q10.488000276158141,6.7919998,12.855999976158142,6.7919998Q14.135999976158143,6.7919998,15.079999976158142,7.2719994Z" fill-rule="evenodd" fill="#333333" fill-opacity="1"/></g><ellipse cx="20.376562476158142" cy="6.78515625" rx="3" ry="3" fill="#FF923A" fill-opacity="1"/></g></svg>