<svg xmlns="http://www.w3.org/2000/svg" xmlns:xlink="http://www.w3.org/1999/xlink" fill="none" version="1.1" width="95" height="95" viewBox="0 0 95 95"><line x1="0" y1="47.2451171875" x2="95" y2="47.2451171875" fill-opacity="0" stroke-opacity="0.6499999761581421" stroke="#141413" fill="none" stroke-width="0.5"/><line x1="47.5048828125" y1="-0.25" x2="142.5048828125" y2="-0.25" fill-opacity="0" stroke-opacity="0.6499999761581421" stroke="#141413" fill="none" stroke-width="0.5" transform="matrix(0,1,-1,0,47.5048828125,-47.5048828125)"/><line x1="85.29296875" y1="76.02392578125" x2="180.29296875" y2="76.02392578125" fill-opacity="0" stroke-opacity="0.6499999761581421" stroke="#141413" fill="none" stroke-width="0.5" transform="matrix(-0.795702338218689,-0.6056879162788391,0.6056879162788391,-0.795702338218689,106.96258824513643,188.626187385933)"/><line x1="69.8271484375" y1="5.3251953125" x2="164.8271484375" y2="5.3251953125" fill-opacity="0" stroke-opacity="0.6499999761581421" stroke="#141413" fill="none" stroke-width="0.5" transform="matrix(-0.46997329592704773,0.8826807141304016,-0.8826807141304016,-0.46997329592704773,107.56516091371304,-53.439689019549405)"/><line x1="68.43461608886719" y1="89.8876724243164" x2="163.4346160888672" y2="89.8876724243164" fill-opacity="0" stroke-opacity="0.6499999761581421" stroke="#141413" fill="none" stroke-width="0.5" transform="matrix(-0.44081246852874756,-0.8975993394851685,0.8975993394851685,-0.44081246852874756,17.693932909020987,191.2983485124032)"/><line x1="0.619718074798584" y1="39.60338592529297" x2="95.61971807479858" y2="39.60338592529297" fill-opacity="0" stroke-opacity="0.6499999761581421" stroke="#141413" fill="none" stroke-width="0.5" transform="matrix(0.9869719743728638,0.16089297831058502,-0.16089297831058502,0.9869719743728638,6.4202036602416115,0.41950264639562107)"/><line x1="3.0029296875" y1="30.627197265625" x2="98.0029296875" y2="30.627197265625" fill-opacity="0" stroke-opacity="0.6499999761581421" stroke="#141413" fill="none" stroke-width="0.5" transform="matrix(0.9367961287498474,0.34987643361091614,-0.34987643361091614,0.9367961287498474,10.993000440539618,0.9009040710952831)"/><line x1="93.3466796875" y1="34.830078125" x2="188.3466796875" y2="34.830078125" fill-opacity="0" stroke-opacity="0.6499999761581421" stroke="#141413" fill="none" stroke-width="0.5" transform="matrix(-0.96518874168396,0.26155540347099304,-0.26155540347099304,-0.96518874168396,192.61922798323212,44.523646120302146)"/><line x1="36.986328125" y1="93.57177734375" x2="131.986328125" y2="93.57177734375" fill-opacity="0" stroke-opacity="0.6499999761581421" stroke="#141413" fill="none" stroke-width="0.5" transform="matrix(0.22126880288124084,-0.9752131700515747,0.9752131700515747,0.22126880288124084,-62.69382532546297,109.13149928605708)"/><line x1="16.675922393798828" y1="11.110359191894531" x2="111.67592239379883" y2="11.110359191894531" fill-opacity="0" stroke-opacity="0.6499999761581421" stroke="#141413" fill="none" stroke-width="0.5" transform="matrix(0.6489962935447693,0.7607920169830322,-0.7607920169830322,0.6489962935447693,14.496181152036343,-8.699380450012995)"/><line x1="15.392440795898438" y1="82.25456237792969" x2="110.39244079589844" y2="82.25456237792969" fill-opacity="0" stroke-opacity="0.6499999761581421" stroke="#141413" fill="none" stroke-width="0.5" transform="matrix(0.6759048700332642,-0.7369894981384277,0.7369894981384277,0.6759048700332642,-55.816380920789015,38.08339408401844)"/><line x1="35.5330924987793" y1="1.282235026359558" x2="130.5330924987793" y2="1.282235026359558" fill-opacity="0" stroke-opacity="0.6499999761581421" stroke="#141413" fill="none" stroke-width="0.5" transform="matrix(0.25201359391212463,0.9677241444587708,-0.9677241444587708,0.25201359391212463,28.061050985343535,-33.240140567706916)"/><line x1="7.91015625" y1="73.495849609375" x2="102.91015625" y2="73.495849609375" fill-opacity="0" stroke-opacity="0.6499999761581421" stroke="#141413" fill="none" stroke-width="0.5" transform="matrix(0.8334399461746216,-0.5526109337806702,0.5526109337806702,0.8334399461746216,-39.435246764318435,16.654351511999266)"/></svg>